<?xml version="1.0" standalone="no"?>
<!DOCTYPE svg PUBLIC "-//W3C//DTD SVG 20010904//EN"
 "http://www.w3.org/TR/2001/REC-SVG-20010904/DTD/svg10.dtd">
<svg version="1.0" xmlns="http://www.w3.org/2000/svg"
 width="520.000000pt" height="520.000000pt" viewBox="0 0 520.000000 520.000000"
 preserveAspectRatio="xMidYMid meet">
<metadata>
Created by potrace 1.11, written by Peter Selinger 2001-2013
</metadata>
<g transform="translate(0.000000,520.000000) scale(0.100000,-0.100000)"
fill="#000000" stroke="none">
<path d="M0 2600 l0 -2600 2600 0 2600 0 0 2600 0 2600 -2600 0 -2600 0 0
-2600z m3158 1798 l-3 -223 -182 -3 -183 -2 0 -925 0 -925 -190 0 -190 0 0
925 0 925 -182 2 -183 3 -3 223 -2 222 560 0 560 0 -2 -222z m-748 -2623 l0
-345 190 0 190 0 0 345 0 345 275 0 275 0 0 -442 c0 -479 -3 -515 -55 -639
-97 -230 -310 -401 -554 -445 -342 -61 -682 125 -816 445 -52 124 -55 160 -55
639 l0 442 275 0 275 0 0 -345z"/>
</g>
</svg>
